<svg xmlns="http://www.w3.org/2000/svg" id="Layer_1" width="185" height="188" viewBox="0 0 185 188"><g id="g3"><g id="g5" fill="#4E4E4E"><path d="M115.912 17.967c0 2.676-.73 4.738-2.193 6.186-1.463 1.448-3.52 2.17-6.167 2.17h-5.148V10.29h5.507c2.554 0 4.526.658 5.916 1.974 1.39 1.316 2.084 3.217 2.084 5.703zm-4.462.154c0-1.468-.29-2.558-.866-3.267-.577-.71-1.453-1.064-2.628-1.064h-1.25v8.98h.957c1.306 0 2.264-.38 2.874-1.145s.913-1.932.913-3.504z" id="path7"/><path d="M123.13 26.544c-2.054 0-3.647-.55-4.784-1.65-1.136-1.1-1.704-2.667-1.704-4.7 0-2.1.526-3.71 1.578-4.832 1.053-1.122 2.555-1.684 4.506-1.684 1.857 0 3.293.488 4.305 1.464s1.52 2.382 1.52 4.217v1.907h-7.608c.03.695.28 1.24.758 1.634.475.396 1.12.593 1.94.593.75 0 1.437-.07 2.064-.214.63-.144 1.31-.387 2.04-.73v3.082c-.667.344-1.356.58-2.067.713-.712.133-1.56.2-2.548.2zm-.25-9.948c-.5 0-.92.16-1.257.477-.338.318-.537.817-.594 1.497h3.655c-.014-.6-.184-1.078-.506-1.437s-.756-.537-1.3-.537z" id="path9"/><path d="M132.85 26.325l-4.7-12.426h4.44l2.09 7.347c.007.037.02.1.043.187s.043.192.065.313c.02.12.04.25.06.384.018.137.027.263.027.38h.076c0-.38.066-.794.196-1.24l2.188-7.37h4.43l-4.702 12.426h-4.21z" id="path11"/><path d="M146.38 26.325h-4.233V10.29h9.404v3.477h-5.17v3.06h4.768v3.477h-4.767v6.02z" id="path13"/><path d="M158.528 26.544c-2.054 0-3.647-.55-4.783-1.65s-1.703-2.667-1.703-4.7c0-2.1.525-3.71 1.578-4.832 1.052-1.122 2.554-1.684 4.506-1.684 1.857 0 3.292.488 4.305 1.464s1.52 2.382 1.52 4.217v1.907h-7.608c.03.695.28 1.24.757 1.634.474.396 1.12.593 1.94.593.748 0 1.436-.07 2.064-.214s1.308-.387 2.04-.73v3.082c-.667.344-1.356.58-2.067.713-.713.133-1.56.2-2.55.2zm-.25-9.948c-.5 0-.92.16-1.257.477-.337.318-.535.817-.593 1.497h3.657c-.015-.6-.184-1.078-.506-1.437-.322-.358-.756-.537-1.3-.537z" id="path15"/><path d="M174.54 22.508c0 1.33-.45 2.336-1.35 3.016-.9.68-2.19 1.02-3.874 1.02-.914 0-1.71-.05-2.384-.148s-1.364-.28-2.067-.543V22.42c.66.292 1.384.534 2.17.724.788.19 1.49.285 2.107.285.92 0 1.382-.213 1.382-.637 0-.22-.13-.415-.386-.586-.258-.172-1.007-.506-2.248-1.004-1.132-.468-1.923-1-2.373-1.596-.45-.596-.675-1.35-.675-2.265 0-1.155.442-2.055 1.328-2.698.885-.644 2.137-.965 3.755-.965.813 0 1.576.09 2.29.268s1.458.44 2.228.784l-1.154 2.764c-.566-.256-1.165-.473-1.797-.652-.63-.18-1.146-.27-1.546-.27-.696 0-1.044.173-1.044.517 0 .213.12.394.364.544s.945.455 2.106.916c.863.358 1.507.71 1.932 1.053s.736.748.936 1.212c.2.463.3 1.028.3 1.693z" id="path17"/><path d="M181.605 23.155c.573 0 1.26-.143 2.058-.428v3.126c-.573.25-1.12.426-1.64.532-.518.105-1.125.16-1.82.16-1.43 0-2.46-.354-3.093-1.06-.63-.705-.946-1.79-.946-3.25V17.11h-1.49v-1.744l1.893-1.35 1.1-2.61h2.786v2.49h3.025v3.214h-3.025v4.837c0 .803.384 1.205 1.152 1.205z" id="path19"/></g><g id="g43" fill="#4E4E4E"><path d="M55.57 17.313h6.923v8.644c-1.88.644-3.945.965-6.198.965-2.472 0-4.382-.716-5.73-2.15-1.35-1.433-2.025-3.477-2.025-6.132 0-2.59.74-4.603 2.216-6.044 1.477-1.44 3.547-2.16 6.208-2.16 1.01 0 1.962.094 2.858.284.896.19 1.676.432 2.342.724l-1.37 3.4c-1.157-.57-2.425-.855-3.808-.855-1.265 0-2.243.41-2.934 1.233-.69.823-1.037 2-1.037 3.527 0 1.5.313 2.642.938 3.428s1.526 1.18 2.704 1.18c.644 0 1.236-.063 1.777-.188v-2.512H55.57v-3.345z" id="path45"/><path d="M78.026 18.344c0 2.676-.737 4.74-2.21 6.187s-3.545 2.173-6.214 2.173h-5.188V10.666h5.55c2.575 0 4.562.658 5.962 1.975s2.1 3.218 2.1 5.704zm-4.497.154c0-1.47-.292-2.56-.873-3.27-.582-.708-1.464-1.063-2.65-1.063h-1.26v8.983h.964c1.317 0 2.283-.382 2.897-1.146s.922-1.932.922-3.504z" id="path47"/><path d="M85.99 17.313h6.923v8.644c-1.88.644-3.945.965-6.198.965-2.472 0-4.382-.716-5.73-2.15-1.35-1.433-2.025-3.477-2.025-6.132 0-2.59.74-4.603 2.216-6.044 1.477-1.44 3.547-2.16 6.208-2.16 1.01 0 1.962.094 2.858.284.896.19 1.676.432 2.342.724l-1.37 3.4c-1.157-.57-2.425-.855-3.808-.855-1.265 0-2.243.41-2.934 1.233-.69.823-1.037 2-1.037 3.527 0 1.5.313 2.642.938 3.428s1.526 1.18 2.704 1.18c.644 0 1.236-.063 1.777-.188v-2.512H85.99v-3.345z" id="path49"/></g><radialGradient id="SVGID_1_" cx="-310.583" cy="-60.055" r="20.114" gradientTransform="matrix(.498 0 0 .498 172.29 79.74)" gradientUnits="userSpaceOnUse"><stop offset="0" id="stop52" stop-color="#FFCF4F"/><stop offset="1" id="stop54" stop-color="#F4C236"/></radialGradient><path fill="url(#SVGID_1_)" d="M8.91 61h6.79c1.608 0 3.605-1.128 4.433-2.51l5.72-9.52c.677-1.396.653-3.426-.12-4.713l-3.377-5.592L8.91 61z" id="path56"/><radialGradient id="SVGID_2_" cx="-322.635" cy="-70.269" r="27.658" gradientTransform="matrix(.498 0 0 .498 172.29 79.74)" gradientUnits="userSpaceOnUse"><stop offset="0" id="stop59" stop-color="#08A960"/><stop offset="1" id="stop61" stop-color="#07914B"/></radialGradient><path fill="url(#SVGID_2_)" d="M16.21 33.514L1.107 58.764C.524 60.01 1.13 61 2.628 61H8.91l13.446-22.335-6.146-10.173c.83 1.378.83 3.638 0 5.022" id="path63"/><radialGradient id="SVGID_3_" cx="-313.183" cy="-109.951" r="40.54" gradientTransform="matrix(.498 0 0 .498 172.29 79.74)" gradientUnits="userSpaceOnUse"><stop offset="0" id="stop66" stop-color="#567FC0"/><stop offset="1" id="stop68" stop-color="#557FC0"/></radialGradient><path fill="url(#SVGID_3_)" d="M2.63 1C1.014 1 .374 2.133 1.204 3.51l24.53 40.746c.77 1.288.794 3.317.118 4.713l5.963-9.926L8.914 1H2.63z" id="path70"/><radialGradient id="SVGID_4_" cx="-301.119" cy="-119.916" r="33.058" gradientTransform="matrix(.498 0 0 .498 172.29 79.74)" gradientUnits="userSpaceOnUse"><stop offset="0" id="stop73" stop-color="#E14C40"/><stop offset="1" id="stop75" stop-color="#CD392D"/></radialGradient><path fill="url(#SVGID_4_)" d="M8.914 1l22.903 38.045 3.32-5.53c.83-1.385.83-3.645 0-5.023L20.134 3.512C19.305 2.13 17.308 1 15.7 1H8.915z" id="path77"/><text style="line-height:125%" x="53.96" y="47.42" id="text3105" transform="scale(.91 1.097)" font-size="21.167" letter-spacing="0" word-spacing="0" fill="#4d4d4d" font-family="Sans"><tspan id="tspan3107" x="53.96" y="47.42" style="-inkscape-font-specification:Adobe Gothic Std Bold" font-weight="bold" font-family="Adobe Gothic Std">Saison 2015</tspan></text><text transform="scale(.91 1.097)" id="text3132" y="100.421" x="54.835" style="line-height:125%" font-size="21.167" letter-spacing="0" word-spacing="0" fill="#4d4d4d" font-family="Sans"><tspan style="-inkscape-font-specification:Adobe Gothic Std Bold" y="100.421" x="54.835" id="tspan3134" font-weight="bold" font-family="Adobe Gothic Std">Saison 2015</tspan></text><text style="line-height:125%" x="54.835" y="157.778" id="text3136" transform="scale(.91 1.097)" font-size="21.167" letter-spacing="0" word-spacing="0" fill="#e6e6e6" font-family="Sans"><tspan id="tspan3138" x="54.835" y="157.778" style="-inkscape-font-specification:Adobe Gothic Std Bold" font-weight="bold" font-family="Adobe Gothic Std">Saison 2015</tspan></text></g><g id="g79"><g id="g81" fill="#4E4E4E"><path d="M115.912 80.967c0 2.677-.73 4.738-2.193 6.187-1.463 1.447-3.52 2.17-6.167 2.17h-5.148V73.29h5.507c2.554 0 4.526.657 5.916 1.974s2.084 3.217 2.084 5.703zm-4.462.153c0-1.47-.29-2.56-.866-3.268-.577-.71-1.453-1.064-2.628-1.064h-1.25v8.982h.957c1.306 0 2.264-.382 2.874-1.146.608-.764.913-1.932.913-3.504z" id="path83"/><path d="M123.13 89.544c-2.054 0-3.647-.55-4.784-1.65-1.136-1.1-1.704-2.667-1.704-4.7 0-2.1.526-3.71 1.578-4.83 1.053-1.123 2.555-1.685 4.506-1.685 1.857 0 3.293.487 4.305 1.463 1.013.977 1.52 2.382 1.52 4.218v1.91h-7.608c.03.693.28 1.238.758 1.633.475.396 1.12.593 1.94.593.75 0 1.437-.07 2.064-.214.63-.143 1.31-.386 2.04-.73v3.083c-.667.344-1.356.58-2.067.713-.712.13-1.56.196-2.548.196zm-.25-9.948c-.5 0-.92.16-1.257.478-.338.318-.537.817-.594 1.497h3.655c-.014-.6-.184-1.077-.506-1.436s-.756-.538-1.3-.538z" id="path85"/><path d="M132.85 89.324l-4.7-12.426h4.44l2.09 7.348c.007.037.02.1.043.187s.043.192.065.313c.02.12.04.25.06.384.018.136.027.262.027.38h.076c0-.38.066-.794.196-1.24l2.188-7.37h4.43l-4.702 12.426h-4.21z" id="path87"/><path d="M146.38 89.324h-4.233V73.29h9.404v3.477h-5.17v3.06h4.768v3.477h-4.767v6.02z" id="path89"/><path d="M158.528 89.544c-2.054 0-3.647-.55-4.783-1.65s-1.703-2.667-1.703-4.7c0-2.1.525-3.71 1.578-4.83 1.052-1.123 2.554-1.685 4.506-1.685 1.857 0 3.292.487 4.305 1.463 1.013.977 1.52 2.382 1.52 4.218v1.91h-7.608c.03.693.28 1.238.757 1.633.474.396 1.12.593 1.94.593.748 0 1.436-.07 2.064-.214s1.308-.386 2.04-.73v3.083c-.667.344-1.356.58-2.067.713-.713.13-1.56.196-2.55.196zm-.25-9.948c-.5 0-.92.16-1.257.478-.337.318-.535.817-.593 1.497h3.657c-.015-.6-.184-1.077-.506-1.436-.322-.36-.756-.538-1.3-.538z" id="path91"/><path d="M174.54 85.508c0 1.33-.45 2.336-1.35 3.016-.9.68-2.19 1.02-3.874 1.02-.914 0-1.71-.05-2.384-.147s-1.364-.28-2.067-.543V85.42c.66.293 1.384.534 2.17.724.788.19 1.49.285 2.107.285.92 0 1.382-.213 1.382-.637 0-.22-.13-.415-.386-.587-.258-.172-1.007-.506-2.248-1.004-1.132-.468-1.923-1-2.373-1.596-.45-.596-.675-1.35-.675-2.265 0-1.154.442-2.054 1.328-2.697.885-.644 2.137-.965 3.755-.965.813 0 1.576.09 2.29.27.716.18 1.458.44 2.228.783l-1.154 2.765c-.566-.256-1.165-.473-1.797-.652-.63-.18-1.146-.27-1.546-.27-.696 0-1.044.173-1.044.517 0 .212.12.393.364.543.243.15.945.455 2.106.915.863.358 1.507.71 1.932 1.054s.736.747.936 1.212c.2.463.3 1.03.3 1.694z" id="path93"/><path d="M181.605 86.154c.573 0 1.26-.143 2.058-.428v3.126c-.573.25-1.12.427-1.64.532-.518.105-1.125.16-1.82.16-1.43 0-2.46-.354-3.093-1.06-.63-.705-.946-1.79-.946-3.252V80.11h-1.49v-1.743l1.893-1.35 1.1-2.61h2.786v2.49h3.025v3.213h-3.025v4.837c0 .806.384 1.207 1.152 1.207z" id="path95"/></g><g id="g119" fill="#4E4E4E"><path d="M55.57 80.313h6.923v8.644c-1.88.644-3.945.966-6.198.966-2.472 0-4.382-.717-5.73-2.15-1.35-1.433-2.025-3.477-2.025-6.132 0-2.588.74-4.602 2.216-6.043 1.477-1.44 3.547-2.16 6.208-2.16 1.01 0 1.962.095 2.858.284.896.19 1.676.433 2.342.726l-1.37 3.4c-1.157-.57-2.425-.855-3.808-.855-1.265 0-2.243.412-2.934 1.234-.69.823-1.037 2-1.037 3.527 0 1.5.313 2.643.938 3.43.625.785 1.526 1.178 2.704 1.178.644 0 1.236-.062 1.777-.187v-2.51H55.57v-3.347z" id="path121"/><path d="M78.026 81.344c0 2.677-.737 4.74-2.21 6.187-1.474 1.45-3.545 2.173-6.214 2.173h-5.188V73.665h5.55c2.575 0 4.562.658 5.962 1.975s2.1 3.217 2.1 5.704zm-4.497.153c0-1.47-.292-2.56-.873-3.27s-1.464-1.062-2.65-1.062h-1.26v8.983h.964c1.317 0 2.283-.382 2.897-1.146.615-.764.922-1.933.922-3.505z" id="path123"/><path d="M85.99 80.313h6.923v8.644c-1.88.644-3.945.966-6.198.966-2.472 0-4.382-.717-5.73-2.15-1.35-1.433-2.025-3.477-2.025-6.132 0-2.588.74-4.602 2.216-6.043 1.477-1.44 3.547-2.16 6.208-2.16 1.01 0 1.962.095 2.858.284.896.19 1.676.433 2.342.726l-1.37 3.4c-1.157-.57-2.425-.855-3.808-.855-1.265 0-2.243.412-2.934 1.234-.69.823-1.037 2-1.037 3.527 0 1.5.313 2.643.938 3.43.625.785 1.526 1.178 2.704 1.178.644 0 1.236-.062 1.777-.187v-2.51H85.99v-3.347z" id="path125"/></g><radialGradient id="SVGID_5_" cx="-310.583" cy="66.455" r="20.114" gradientTransform="matrix(.498 0 0 .498 172.29 79.74)" gradientUnits="userSpaceOnUse"><stop offset="0" id="stop128" stop-color="#CCC"/><stop offset="1" id="stop130" stop-color="#C0C0C0"/></radialGradient><path fill="url(#SVGID_5_)" d="M8.91 124h6.79c1.608 0 3.605-1.128 4.433-2.51l5.72-9.52c.677-1.396.653-3.426-.12-4.713l-3.377-5.592L8.91 124z" id="path132"/><radialGradient id="SVGID_6_" cx="-322.635" cy="56.241" r="27.658" gradientTransform="matrix(.498 0 0 .498 172.29 79.74)" gradientUnits="userSpaceOnUse"><stop offset="0" id="stop135" stop-color="#A0A0A0"/><stop offset="1" id="stop137" stop-color="#7B7B7B"/></radialGradient><path fill="url(#SVGID_6_)" d="M16.21 96.514l-15.102 25.25C.524 123.01 1.13 124 2.628 124H8.91l13.446-22.335-6.146-10.173c.83 1.378.83 3.638 0 5.022" id="path139"/><radialGradient id="SVGID_7_" cx="-313.183" cy="16.559" r="40.54" gradientTransform="matrix(.498 0 0 .498 172.29 79.74)" gradientUnits="userSpaceOnUse"><stop offset="0" id="stop142" stop-color="#848484"/><stop offset="1" id="stop144" stop-color="#838383"/></radialGradient><path fill="url(#SVGID_7_)" d="M2.63 64c-1.614 0-2.255 1.133-1.425 2.51l24.53 40.746c.77 1.288.794 3.317.118 4.713l5.963-9.926L8.914 64H2.63z" id="path146"/><radialGradient id="SVGID_8_" cx="-301.119" cy="6.594" r="33.058" gradientTransform="matrix(.498 0 0 .498 172.29 79.74)" gradientUnits="userSpaceOnUse"><stop offset="0" id="stop149" stop-color="#626262"/><stop offset="1" id="stop151" stop-color="#474747"/></radialGradient><path fill="url(#SVGID_8_)" d="M8.914 64l22.903 38.045 3.32-5.53c.83-1.385.83-3.645 0-5.023l-15.003-24.98C19.304 65.132 17.308 64 15.7 64H8.915z" id="path153"/></g><g id="g155"><g id="g157" fill="#E6E6E5"><path d="M116.07 143.967c0 2.676-.73 4.738-2.192 6.186-1.462 1.448-3.518 2.172-6.166 2.172h-5.148V136.29h5.507c2.555 0 4.527.658 5.917 1.975s2.084 3.215 2.084 5.702zm-4.462.153c0-1.47-.29-2.56-.866-3.27-.577-.708-1.453-1.062-2.628-1.062h-1.25v8.982h.957c1.307 0 2.265-.382 2.875-1.146.608-.764.913-1.932.913-3.504z" id="path159"/><path d="M123.287 152.544c-2.053 0-3.646-.55-4.782-1.65-1.136-1.1-1.704-2.668-1.704-4.7 0-2.1.527-3.71 1.58-4.83 1.05-1.124 2.553-1.685 4.504-1.685 1.857 0 3.293.486 4.305 1.463s1.52 2.382 1.52 4.217v1.91h-7.61c.03.693.28 1.238.758 1.633.475.395 1.12.592 1.94.592.75 0 1.437-.07 2.064-.214.63-.142 1.31-.384 2.04-.728v3.08c-.667.345-1.356.583-2.067.714-.712.132-1.56.198-2.548.198zm-.25-9.948c-.5 0-.92.16-1.256.478-.337.317-.536.816-.593 1.497h3.656c-.014-.6-.184-1.078-.506-1.437-.32-.358-.755-.537-1.3-.537z" id="path161"/><path d="M133.01 152.324l-4.703-12.427h4.44l2.09 7.35c.008.036.022.098.044.186s.044.192.066.313c.02.12.04.25.06.384.018.136.027.262.027.38h.076c0-.382.064-.795.194-1.24l2.188-7.37h4.43l-4.702 12.426h-4.21z" id="path163"/><path d="M146.54 152.324h-4.235V136.29h9.404v3.477h-5.17v3.06h4.766v3.477h-4.767v6.02z" id="path165"/><path d="M158.687 152.544c-2.054 0-3.647-.55-4.783-1.65-1.136-1.1-1.703-2.668-1.703-4.7 0-2.1.526-3.71 1.58-4.83 1.05-1.124 2.553-1.685 4.505-1.685 1.857 0 3.292.486 4.305 1.463 1.012.977 1.52 2.382 1.52 4.217v1.91h-7.61c.03.693.282 1.238.758 1.633.475.395 1.122.592 1.942.592.747 0 1.435-.07 2.063-.214s1.308-.384 2.04-.728v3.08c-.667.345-1.356.583-2.067.714-.714.132-1.562.198-2.55.198zm-.25-9.948c-.5 0-.92.16-1.257.478-.338.317-.536.816-.594 1.497h3.657c-.015-.6-.184-1.078-.506-1.437-.323-.358-.757-.537-1.3-.537z" id="path167"/><path d="M174.7 148.508c0 1.33-.45 2.336-1.35 3.016-.9.68-2.192 1.02-3.876 1.02-.914 0-1.71-.05-2.384-.147s-1.364-.28-2.067-.543v-3.433c.66.293 1.384.534 2.17.725s1.49.285 2.107.285c.92 0 1.382-.212 1.382-.636 0-.22-.13-.415-.386-.587-.258-.172-1.007-.507-2.248-1.004-1.132-.468-1.923-1-2.373-1.596-.45-.596-.675-1.35-.675-2.265 0-1.155.442-2.055 1.328-2.698.885-.644 2.137-.965 3.755-.965.813 0 1.576.088 2.29.268.716.18 1.458.44 2.228.784l-1.153 2.764c-.565-.256-1.164-.474-1.796-.652-.63-.18-1.145-.27-1.545-.27-.696 0-1.044.173-1.044.517 0 .213.122.394.365.543.243.15.945.456 2.106.916.864.357 1.508.71 1.933 1.052.425.344.736.748.936 1.212.2.463.3 1.028.3 1.694z" id="path169"/><path d="M181.764 149.154c.573 0 1.26-.143 2.058-.428v3.126c-.573.25-1.12.426-1.64.532-.518.105-1.125.16-1.82.16-1.43 0-2.46-.355-3.093-1.06-.632-.706-.947-1.79-.947-3.252v-5.122h-1.49v-1.744l1.893-1.35 1.1-2.61h2.786v2.49h3.025v3.214h-3.025v4.837c-.002.806.383 1.207 1.152 1.207z" id="path171"/></g><g id="g195" fill="#E6E6E5"><path d="M55.73 143.313h6.92v8.644c-1.878.644-3.944.966-6.197.966-2.472 0-4.382-.717-5.73-2.15s-2.025-3.478-2.025-6.132c0-2.588.74-4.603 2.216-6.043s3.547-2.16 6.208-2.16c1.01 0 1.962.095 2.858.284.896.19 1.676.433 2.342.726l-1.37 3.4c-1.157-.57-2.425-.855-3.808-.855-1.265 0-2.243.412-2.934 1.234-.69.823-1.037 1.998-1.037 3.526 0 1.5.313 2.643.938 3.43.626.785 1.527 1.178 2.705 1.178.644 0 1.236-.062 1.777-.187v-2.51H55.73v-3.347z" id="path197"/><path d="M78.185 144.345c0 2.677-.737 4.738-2.21 6.187s-3.545 2.172-6.214 2.172h-5.187v-16.037h5.55c2.575 0 4.562.658 5.962 1.975s2.1 3.216 2.1 5.703zm-4.497.153c0-1.47-.29-2.56-.872-3.27s-1.464-1.063-2.65-1.063h-1.26v8.984h.964c1.316 0 2.282-.384 2.896-1.147.614-.765.922-1.933.922-3.505z" id="path199"/><path d="M86.15 143.313h6.922v8.644c-1.88.644-3.945.966-6.198.966-2.472 0-4.382-.717-5.73-2.15s-2.025-3.478-2.025-6.132c0-2.588.738-4.603 2.215-6.043s3.547-2.16 6.208-2.16c1.01 0 1.962.095 2.858.284.897.19 1.677.433 2.343.726l-1.37 3.4c-1.157-.57-2.425-.855-3.808-.855-1.265 0-2.243.412-2.934 1.234-.69.823-1.036 1.998-1.036 3.526 0 1.5.313 2.643.938 3.43.625.785 1.526 1.178 2.704 1.178.644 0 1.236-.062 1.777-.187v-2.51H86.15v-3.347z" id="path201"/></g><radialGradient id="SVGID_9_" cx="-310.265" cy="192.965" r="20.114" gradientTransform="matrix(.498 0 0 .498 172.29 79.74)" gradientUnits="userSpaceOnUse"><stop offset="0" id="stop204" stop-color="#FFCF4F"/><stop offset="1" id="stop206" stop-color="#F4C236"/></radialGradient><path fill="url(#SVGID_9_)" d="M9.068 187h6.79c1.608 0 3.605-1.128 4.433-2.51l5.72-9.52c.678-1.396.654-3.426-.118-4.713l-3.378-5.592L9.068 187z" id="path208"/><radialGradient id="SVGID_10_" cx="-322.317" cy="182.751" r="27.658" gradientTransform="matrix(.498 0 0 .498 172.29 79.74)" gradientUnits="userSpaceOnUse"><stop offset="0" id="stop211" stop-color="#08A960"/><stop offset="1" id="stop213" stop-color="#07914B"/></radialGradient><path fill="url(#SVGID_10_)" d="M16.368 159.514l-15.102 25.25C.683 186.01 1.29 187 2.786 187H9.07l13.446-22.335-6.146-10.173c.83 1.378.83 3.638 0 5.022" id="path215"/><radialGradient id="SVGID_11_" cx="-312.865" cy="143.069" r="40.54" gradientTransform="matrix(.498 0 0 .498 172.29 79.74)" gradientUnits="userSpaceOnUse"><stop offset="0" id="stop218" stop-color="#567FC0"/><stop offset="1" id="stop220" stop-color="#557FC0"/></radialGradient><path fill="url(#SVGID_11_)" d="M2.787 127c-1.613 0-2.254 1.133-1.424 2.51l24.53 40.746c.77 1.288.794 3.317.118 4.713l5.964-9.926L9.072 127H2.787z" id="path222"/><radialGradient id="SVGID_12_" cx="-300.801" cy="133.104" r="33.058" gradientTransform="matrix(.498 0 0 .498 172.29 79.74)" gradientUnits="userSpaceOnUse"><stop offset="0" id="stop225" stop-color="#E14C40"/><stop offset="1" id="stop227" stop-color="#CD392D"/></radialGradient><path fill="url(#SVGID_12_)" d="M9.072 127l22.903 38.045 3.32-5.53c.83-1.385.83-3.645 0-5.023l-15.003-24.98c-.83-1.38-2.825-2.512-4.432-2.512H9.072z" id="path229"/></g></svg>